<?xml version="1.0" encoding="UTF-8"?>
<svg viewBox="0 0 300 200" xmlns="http://www.w3.org/2000/svg">
 <path d="m53.4068,92.8996c-17.1273,0-25.82-2.8832-26.0782-8.6497-.4304-7.9181-1.7644-13.8997-4.0021-17.9448-.9467-1.6353-2.2808-3.6149-4.0021-5.9386-2.9263-3.873-4.5615-7.1436-4.9058-9.8116-.0861-.6886-.1291-1.4201-.1291-2.1947 0-5.4222 2.2807-9.6825 6.8423-12.7809 1.1188-.6886 2.2807-1.248 3.4857-1.6783 4.5615-1.6353 9.08-1.3771 13.5555.7746 1.6352.7746 3.2705,1.8074 4.9058,3.0984l.1291.1291c0-1.8074.086-3.7439.2582-5.8095 0-.6025.3012-1.4201.9037-2.4529 1.377-2.2377 3.0123-4.0021 4.9058-5.2931 .3442-.1722.6885-.3873 1.0327-.6455v-3.0984l-5.293-3.0984v-4.6476h4.7767l1.6783-4.90581h3.8729l1.6783,4.90581h4.7767v4.6476l-5.293,3.0984v3.0984c4.4754,2.8402 6.7562,5.6804 6.8422,8.5206 .1722,1.7213.2582,3.6148.2582,5.6804l.1291-.1291c5.4222-4.5616 11.1026-6.0247 17.0412-4.3894 1.5492.4303 3.0124,1.0758 4.3894,1.9365 4.8197,2.9262 7.2727,7.2726 7.3587,13.0391 0,3.4426-1.7213,7.5308-5.164,12.2645-2.8402,3.959-4.6045,6.8422-5.2931,8.6497-1.4631,3.8729-2.3238,8.8648-2.582,14.9755-.1721,5.7665-8.8648,8.6497-26.0781,8.6497m0-43.5066 3.7439-5.9386c.6024-1.291 1.0758-2.496 1.42-3.6148 .1722-.6025.2582-1.8504.2582-3.7439 0-5.0779-1.7643-7.6169-5.2931-7.6169-3.7008,0-5.5512,2.539-5.5512,7.6169 0,1.8935.086,3.1414.2582,3.7439 .6885,2.3238 2.1516,5.0779 4.3893,8.2624 .5165.6024.7747,1.0328.7747,1.291m34.4696-.2582c0-3.873-1.291-6.8423-3.873-8.9079-2.1516-1.8074-4.6906-2.7111-7.6169-2.7111-3.7008,0-7.7029,1.8934-12.0063,5.6804-5.0779,4.3894-7.9611,10.328-8.6496,17.8158 0,.6024 1.5922,1.2909 4.7766,2.0655 3.7009.6886 9.9838,1.0329 18.8486,1.0329l5.8095-7.7461c1.8074-2.7541 2.7111-5.1639 2.7111-7.2295m-34.4696,17.4285c-2.1517.9467-8.6928,1.7643-19.6232,2.4528-1.6353.0861-2.9693.1722-4.0021.2583 .8606,3.2705 1.4201,6.8853 1.6783,10.8443 5.9386-1.8934 13.2542-2.8401 21.947-2.8401 8.8648,0 16.1805.9467 21.9469,2.8401 .2583-4.3033.8177-7.9181 1.6783-10.8443l-19.1068-1.5492c-1.6352-.2583-3.1414-.6455-4.5184-1.1619m-34.4697-17.4285c0,2.668 2.1086,6.7132 6.3259,12.1353 1.0328,1.2911 1.7644,2.2378 2.1947,2.8403h2.3238c8.8648,0 15.3198-.6025 19.365-1.8075 1.291-.3442 1.9365-.7745 1.9365-1.2909-.6886-7.4878-3.5718-13.4264-8.6497-17.8158-4.2173-3.787-8.2194-5.6804-12.0063-5.6804-1.205,0-2.4959.2582-3.873.7746-3.4427.8607-5.7665,3.1414-6.9714,6.8423l-.6455,3.4857v.5164m34.4697,39.1172c8.0902,0 13.6846-.5164 16.783-1.5491 .7746-.2583 1.1619-.5595 1.1619-.9038 0-2.2377-5.9386-3.3566-17.8159-3.3566-4.5615,0-8.9939.3013-13.2972.9038-3.1845.5163-4.7767,1.334-4.7767,2.4528 0,1.291 5.0779,2.1087 15.2338,2.4529h2.7111"/>
 <path transform="translate(-137.82 -210.97)" d="m274.618,270.102h5.681c1.291,0 2.84.043 4.647.129l12.781.775h.129c1.549,0 2.324-.215 2.324-.646v-.516c0-2.582-5.723-4.26-17.17-5.035-2.066-.172-3.873-.258-5.422-.258-8.435,0-14.933.861-19.495,2.582-2.065.774-3.098,1.678-3.098,2.711v.516c0,.431.775.646 2.324.646l17.299-.904m23.884,5.81c-6.8-.861-13.771-1.291-20.914-1.291-7.488,0-14.46.43-20.915,1.291 1.033.86 1.55,2.539 1.55,5.035 0,1.635-.259,2.625-.775,2.969 5.164-.947 11.877-1.42 20.14-1.42s14.975.473 20.139,1.42c-.516-.344-.775-1.334-.774-2.969-.001-2.496.516-4.175 1.549-5.035m-20.914,11.102c-4.39,0-9.296.215-14.718.646-4.217.344-6.326,1.334-6.326,2.969 0,2.152 7.015,3.228 21.044,3.228s21.043-1.076 21.043-3.228c0-.688-.56-1.334-1.678-1.936-3.271-1.119-9.726-1.679-19.365-1.679m0-67.519c-2.152,0-3.228,1.033-3.228,3.098 0,2.238 1.076,3.357 3.228,3.357 2.065,0 3.098-1.119 3.098-3.357 0-2.065-1.033-3.098-3.098-3.098m0-3.744c3.098,0 5.249,1.42 6.455,4.26l.645,2.582v.388c0,.516-.344,1.592-1.033,3.227-1.205,3.529-1.807,6.584-1.807,9.166 0,4.218.946,10.457 2.84,18.72 4.648-9.812 6.971-17.214 6.971-22.205l-.774-5.552c0-3.012 1.334-5.164 4.002-6.455 .947-.516 1.979-.774 3.098-.774 3.099,0 5.293,1.377 6.584,4.131 .517,1.033.775,2.065.775,3.098 0,2.238-.775,4.002-2.324,5.293-2.324,2.324-3.529,6.111-3.615,11.361 0,2.238.215,5.853.646,10.845 5.594-5.767 8.391-10.458 8.391-14.072l-.645-5.035c0-2.84 1.291-4.949 3.873-6.326 1.033-.603 2.108-.904 3.227-.904 2.927,0 5.121,1.334 6.585,4.002l.774,2.453v.775c0,3.529-1.98,6.197-5.938,8.004-.173,3.701-1.593,10.973-4.261,21.818-.172.516-.301.99-.387,1.42 0,1.205-1.377,3.27-4.131,6.197-3.701,3.701-5.552,6.584-5.552,8.649 0,.947 1.033,3.486 3.099,7.617 .344.775.516,1.937.516,3.486v.904c-.086.258-.129.559-.129.903v.13l.129.129c0,3.098-8.305,4.819-24.916,5.164h-3.228l-5.422-.129h-.129c-8.09-.259-14.244-.947-18.461-2.066-2.668-.775-4.002-1.764-4.002-2.969 .086-.086.086-.603 0-1.55-.086-.172-.086-.344 0-.516 0-1.979.645-4.26 1.936-6.842 1.033-2.066 1.549-3.486 1.549-4.261 0-1.377-.731-3.012-2.194-4.905l-6.326-7.23c-.689-.947-1.033-1.85-1.033-2.711-2.668-10.931-4.174-18.031-4.518-21.302-.086-.688-.13-1.334-.13-1.936-3.959-1.807-5.938-4.475-5.938-8.004 0-2.84 1.291-4.949 3.873-6.326 1.119-.603 2.238-.904 3.356-.904 3.013,0 5.164,1.377 6.455,4.131 .517.947.775,1.98.775,3.099l-.645,5.035c0,3.787 2.754,8.477 8.262,14.072 .43-3.787.645-7.402.645-10.845 0-4.733-.559-7.875-1.678-9.424-.43-.603-1.076-1.291-1.936-2.066-1.55-1.033-2.324-2.754-2.324-5.164 0-3.012 1.42-5.207 4.26-6.584 .947-.43 1.98-.645 3.099-.645 3.012,0 5.164,1.377 6.455,4.131 .516.947.774,1.979.774,3.098l-.774,5.422v.13c0,4.905 2.323,12.307 6.971,22.205 1.807-7.832 2.711-14.072 2.711-18.72 0-3.442-.646-6.713-1.936-9.811-.517-1.205-.775-2.066-.775-2.582 0-3.013 1.377-5.164 4.131-6.455 .947-.517 1.98-.775 3.099-.775m37.309,15.879c-1.377,0-2.367.689-2.969,2.066-.086.344-.129.689-.129,1.033 0,1.721.774,2.797 2.324,3.227 .258.086.516.129.774.129 2.152,0 3.228-1.118 3.228-3.356 0-2.066-1.076-3.099-3.228-3.099m-16.912-8.262c-1.463,0-2.453.732-2.969,2.195l-.129,1.032c0,1.55.731,2.582 2.195,3.099 .258.086.559.129.903.129 2.238,0 3.357-1.076 3.357-3.228s-1.119-3.227-3.357-3.227m-41.053,0c-2.152,0-3.228,1.076-3.228,3.227s1.076,3.228 3.228,3.228c2.065,0 3.098-1.076 3.098-3.228s-1.033-3.227-3.098-3.227m-16.913,8.262c-2.151,0-3.227,1.033-3.227,3.099 0,2.238 1.076,3.356 3.227,3.356 2.066,0 3.099-1.118 3.099-3.356 0-1.463-.732-2.453-2.195-2.97-.258-.086-.559-.129-.904-.129m37.569,8.263c-1.205,7.574-2.755,13.039-4.648,16.395l-1.937,3.099v.129c-.258-.258-1.377-1.549-3.356-3.873-2.496-2.926-5.121-8.478-7.875-16.654 .172,1.205.258,2.453.258,3.744 0,4.045-.732,10.285-2.195,18.719-4.647-2.754-9.166-7.143-13.555-13.168 1.463,7.402 2.582,12.265 3.356,14.589 .517,1.721 1.162,2.711 1.937,2.969 7.057-4.045 16.395-6.068 28.015-6.068 11.704,0 21.043,2.023 28.014,6.068 1.549-.517 3.271-6.369 5.164-17.558-4.475,6.197-8.951,10.586-13.426,13.168-1.463-7.487-2.195-13.383-2.195-17.686 0-1.119.086-2.711.258-4.777-1.721,5.164-3.701,9.769-5.938,13.814-1.205,1.807-2.539,3.529-4.002,5.164-.689.688-1.119,1.205-1.291,1.549l-2.841-5.035c-.086-.344-.215-.688-.387-1.033-.688-1.893-1.807-6.412-3.356-13.555"/>
 <path transform="translate(-214.38 -204.72)" d="m430.41 249.06v22.851h29.434v-22.851h-29.434m-15.234 50.091-2.453-2.453v-8.908l13.168-13.297v-25.82l-11.361-9.941v-11.748l3.744-3.615h11.619l2.195 2.195v3.356h3.744v-3.356l2.194-2.195h14.201l2.195 2.195v3.356h3.615v-3.356l2.324-2.195h11.619l3.744 3.615v11.748l-11.361 9.941v25.82l13.168 13.297v8.908l-2.453 2.453h-59.902m2.065-10.199v5.035h55.771v-5.035h-55.771m12.652-12.781-8.52 8.262h47.508l-8.52-8.262h-30.468m10.328-47.38v3.357l-1.936 1.807h-8.392l-1.936-1.807v-3.615h-7.23l-1.678 1.807v7.23l8.779 7.1h34.598l8.779-7.1v-7.23l-1.678-1.807h-7.23v3.615l-1.936 1.807h-8.392l-1.936-1.807v-3.357h-9.812"/>
 <path transform="translate(-472.19 -110.97)" d="m613.062,264.164c-6.025,0-10.716-.259-14.072-.775 .602,1.205.903,2.238.903,3.098 0,1.291-.258,2.367-.774,3.228 2.496-.775 7.143-1.162 13.943-1.162s11.446.387 13.942,1.162c-.516-.861-.774-1.937-.774-3.228 0-1.032.258-2.065.774-3.098-4.045.516-8.692.775-13.942.775m0-46.735c-1.808,0-3.056.818-3.744,2.453-.172.431-.258.861-.258,1.291 0,1.894.946,3.142 2.84,3.744 .344.086.731.129 1.162.129 1.979,0 3.27-.903 3.873-2.711 .086-.344.129-.731.129-1.162 0-1.721-.861-2.883-2.582-3.485-.517-.173-.99-.259-1.42-.259m0,54.868c-3.271,0-7.488.301-12.652.904-1.463.172-2.324.989-2.582,2.452 0,1.033 2.367,1.679 7.1,1.937-.43-.086-.258-.129.517-.129h7.617c10.069,0 15.104-.603 15.104-1.808 0-1.979-2.496-3.055-7.487-3.227h-3.744c-1.119,0-2.066-.043-2.841-.129h-1.032m-.129-11.877c9.639,0 15.535-.904 17.686-2.711 1.463-1.119 2.539-4.089 3.228-8.908-.431-4.304-3.228-8.435-8.392-12.394-4.82-3.787-9.037-5.895-12.651-6.326-3.357.431-7.445,2.539-12.265,6.326-5.078,3.959-7.832,8.09-8.262,12.394 .602,4.475 1.549,7.315 2.84,8.52 .344.345.731.646 1.162.904 2.151,1.463 7.703,2.195 16.654,2.195m-2.195-6.326v-5.681h-4.389v-5.035h4.389v-5.551h4.647v5.551h4.39v5.035h-4.39v5.681h-4.647m2.066,26.336c-.775,0-3.056,1.506-6.843,4.519-2.668,1.807-6.971,2.883-12.91,3.227-4.303,0-7.746.215-10.328.646-2.754.602-4.131,1.764-4.131,3.485 .258,1.722 1.162,2.582 2.711,2.582l6.842-1.032c4.476,0 9.167-.603 14.072-1.808 5.595-1.463 9.209-3.787 10.845-6.971 2.323,4.561 8.348,7.315 18.074,8.262l3.356.517h3.357l6.971,1.032c1.549,0 2.453-.86 2.711-2.582 0-1.721-1.377-2.883-4.131-3.485l-13.814-1.033c-4.389-.344-8.606-2.066-12.651-5.164-1.808-1.463-3.185-2.195-4.131-2.195m.258,11.232c-3.357,3.356-8.435,5.422-15.234,6.197-2.754.258-7.574.86-14.459,1.807-1.808.344-2.84,1.162-3.099,2.453-1.635-.43-4.045-3.098-7.229-8.004-.775-1.205-1.334-2.023-1.679-2.453 2.841-5.422 6.369-8.133 10.587-8.133l7.617.387c3.528,0 7.659-.818 12.393-2.453-6.111-.775-9.166-2.625-9.166-5.551l2.582-9.812v-.258c-5.164-5.681-7.746-11.017-7.746-16.009 0-5.68 2.797-10.844 8.392-15.492 4.905-4.131 8.52-6.325 10.844-6.584-1.894-2.323-2.84-4.733-2.84-7.229 0-3.959 1.979-6.455 5.938-7.488 .947-.258 1.98-.387 3.099-.387 4.217,0 6.971,1.592 8.262,4.776l.646,2.712v.387c-.001,2.668-.904,5.078-2.712,7.229 2.324.259 5.982,2.496 10.974,6.714 5.508,4.561 8.262,9.682 8.262,15.362 0,4.82-2.582,10.156-7.746,16.009 0,1.205.431,2.926 1.291,5.164 .861,2.754 1.291,4.389 1.291,4.906 0,2.926-3.055,4.776-9.166,5.551 4.648,1.635 8.779,2.453 12.394,2.453l7.617-.387c4.217,0 7.746,2.711 10.586,8.133l-4.389,6.713c-1.464,1.893-2.97,3.141-4.519,3.744-.344-1.721-2.84-2.797-7.488-3.228 .603,0-.688-.129-3.873-.387-10.758-1.033-17.902-3.313-21.43-6.842"/>
 <path transform="translate(-730.01 -110.96)" d="m750.654,268.682c1.205,0 1.807.818 1.807,2.453 0,2.152-1.076,3.227-3.227,3.227-.861,0-1.291-.688-1.291-2.065 0-2.41.903-3.615 2.711-3.615m9.295-15.75c-1.205,0-1.807-.732-1.807-2.195 0-2.324 1.377-4.217 4.131-5.68 1.205-.603 2.324-.904 3.357-.904 1.807,0 2.797.603 2.969,1.807 0,1.98-1.549,3.873-4.648,5.681-1.549.861-2.883,1.291-4.002,1.291m1.033-24.271c.344,1.205.516,2.023.516,2.453 0,.258-.129.947-.387,2.066 1.377,0 3.271-.689 5.68-2.066-2.323-1.205-4.26-2.023-5.809-2.453m-15.363,44.41c.516,2.066 1.893,3.572 4.131,4.519 .861.344 1.679.516 2.453.516h.258c.172,0 1.119-.516 2.841-1.549 .516-.344.946-.516 1.291-.516h.516c.43,0 .645.258.645.774l-.774,2.453c0,.775.602,1.162 1.807,1.162 .172,0 1.248-1.506 3.228-4.518 3.787-5.853 9.166-10.285 16.137-13.298 .689-4.647 2.41-8.735 5.164-12.264 .689-.947 1.377-1.42 2.066-1.42 .774,0 1.162.559 1.162,1.678 0,.258-.775,2.711-2.324,7.359-.603,1.979-.904,3.442-.904,4.389 0,.258.086.818.258,1.678 0,6.111-2.582,12.523-7.746,19.236-3.442,4.648-5.336,8.349-5.68,11.103h42.603c.344-3.959.516-6.885.516-8.779 0-17.73-5.551-31.888-16.654-42.474-3.356-3.098-6.067-4.647-8.133-4.647h-7.746c-.688-.345-1.377-2.066-2.065-5.164-.517-2.496-1.162-4.045-1.937-4.648-1.033,3.098-4.217,5.508-9.553,7.23-2.84.86-4.82,1.721-5.939,2.582-.947,3.012-3.744,9.123-8.391,18.332-4.562,9.123-6.972,14.545-7.23,16.266m72.296,26.079h-54.093c.344-5.939 2.582-11.619 6.713-17.042 3.185-4.303 5.078-6.928 5.681-7.875 1.205-1.893 1.936-4.174 2.194-6.842-5.594,2.41-9.94,5.853-13.039,10.328l-1.807,2.969c-1.291,2.066-2.109,3.228-2.453,3.486-.516.43-1.076.646-1.678.646-2.668,0-4.476-.904-5.423-2.712-.172-.258-.258-.559-.258-.903-.86.43-1.721.645-2.582.645-4.131,0-7.401-2.582-9.811-7.746 .688-3.787 4.303-12.522 10.844-26.207 .689-1.291 1.205-2.324 1.549-3.098 2.582-5.767 3.873-10.113 3.873-13.04 0-.43-.258-2.84-.774-7.229h1.032c4.648,0 9.081,1.463 13.298,4.389 2.324-4.045 4.26-6.067 5.809-6.067 2.754,1.463 4.648,3.528 5.681,6.196l1.42,4.261c.86-.172 1.592-.259 2.194-.259 6.886,0 13.685,4.39 20.398,13.169 7.832,10.242 11.748,24.27 11.748,42.086 0,4.045-.172,7.66-.516,10.845"/>
 <path transform="translate(-711.26 -110.97)" d="m972.161,293.986c0-9.037-2.453-15.794-7.359-20.269-1.635-1.549-3.657-3.012-6.067-4.389-3.357-1.98-5.035-3.787-5.035-5.423 0-.86.86-1.807 2.582-2.84 2.668-1.463 4.26-3.184 4.777-5.164 .172-.774.258-1.721.258-2.84 0-3.959-2.023-7.057-6.068-9.295l-2.324-1.679c-.43-.43-.645-.903-.645-1.42 0-1.463.516-2.926 1.549-4.389 .688-.947 1.033-2.066 1.033-3.357 0-2.237-1.205-3.873-3.615-4.905-.775-.259-1.549-.388-2.324-.388-2.41,0-4.131,1.076-5.164,3.228-.344.688-.516,1.377-.516,2.065 0,.775.559,2.238 1.678,4.39 .688,1.205.99,2.324.904,3.356 0,1.033-.99,2.066-2.97,3.099-3.959,2.324-5.938,5.422-5.938,9.295 0,3.357 1.678,6.025 5.035,8.004 1.635,1.119 2.453,2.066 2.453,2.84 0,1.636-1.679,3.443-5.035,5.423-6.197,3.786-10.156,8.391-11.877,13.813-.947,3.013-1.42,6.627-1.42,10.845h46.088m-50.607,5.164c-.086-1.033-.129-3.013-.129-5.939 0-10.586 3.098-18.504 9.295-23.754 2.066-1.722 4.691-3.4 7.875-5.035-3.27-1.033-5.465-3.529-6.584-7.488-.43-1.291-.645-2.625-.645-4.002 0-5.767 2.926-9.898 8.778-12.394-1.377-2.496-2.065-4.949-2.065-7.358 0-3.959 1.936-6.886 5.809-8.779 1.635-.775 3.4-1.162 5.293-1.162 4.39,0 7.617,1.678 9.683,5.035 .946,1.463 1.42,3.098 1.42,4.906 0,2.323-.775,4.776-2.324,7.358 5.939,2.41 8.908,6.541 8.908,12.394 0,4.561-1.678,8.004-5.035,10.328-.688.516-1.463.904-2.324,1.162 7.746,3.959 12.781,8.994 15.105,15.104 1.463,3.787 2.195,8.349 2.195,13.685 0,2.84-.043,4.82-.129,5.939h-55.126"/>
</svg>
